<svg xmlns="http://www.w3.org/2000/svg" width="210mm" height="297mm"><title>No Littering</title><path style="marker:none" color="#000" fill="#fff" fill-rule="evenodd" stroke="#fff" stroke-width="1.5" overflow="visible" d="M23.534 155.232H720.56v741.899H23.534z"/><g stroke="#000"><path d="M552.548 265.68c0 30.833-24.995 55.827-55.827 55.827-30.833 0-55.828-24.994-55.828-55.827 0-30.832 24.995-55.827 55.828-55.827 30.832 0 55.827 24.995 55.827 55.827z" stroke-width="2.23298"/><path d="M435.161 346.311c-3.348.028-6.586 1.543-8.764 4.436l-58.215 77.368h-94.897a11.108 11.108 0 0 0-11.145 11.145v19.693c0 6.185 4.96 11.146 11.145 11.146h108.856c3.424 0 6.395-1.591 8.44-4.004 1.46-.748 2.838-1.734 3.895-3.138l35.275-46.853v397.873c0 15.502 12.524 27.918 28.026 27.918h1.73c15.503 0 28.026-12.416 28.026-27.918V576.465h18.503v237.512a27.81 27.81 0 0 0 27.918 27.918h1.73c15.503 0 28.026-12.416 28.026-27.918V541.082c0-.969-.014-1.87-.108-2.814V415.563h11.795v152.246c0 10.805 9.365 19.477 20.992 19.477 11.626 0 20.992-8.672 20.992-19.477V376.717h-.108c.007-.291.108-.573.108-.866 0-16.338-13.311-29.54-29.649-29.54h-152.57z" stroke-width="3.46259"/></g><g color="#000" fill="none" stroke="#333" stroke-width="16.637" stroke-linecap="round" stroke-linejoin="round"><path style="marker:none" d="M134.983 590.941l38.21 240.954h112.385l1.349-.45" overflow="visible" stroke-width="20.00050229"/><path d="M325.138 590.492l-38.211 240.953H174.542l-1.349-.45" style="marker:none" overflow="visible" stroke-width="20.00050229"/></g><path style="marker:none" d="M221.51 497.42c31.589 14.81 64.676 18.194 98.714 14.328M175.833 548.94c14.812 39.045 84.545 10.631 104.844 21.34" color="#000" fill="none" stroke="red" stroke-width="2" stroke-linecap="round" stroke-linejoin="round" overflow="visible"/><path d="M-1096.98 8.262c40.02 46.71 130.738 26.509 177.605 32.444" style="marker:none" color="#000" fill="none" stroke="red" stroke-width="3.828" stroke-linecap="round" stroke-linejoin="round" overflow="visible" transform="matrix(.52392 0 0 .521 782.185 519.864)"/><path d="M175.988 548.293c29.513-11.206 37.535-33.815 45.523-50.873M280.682 570.712c-6.639-26.129 46.182-30.439 39.67-59.28" style="marker:none" color="#000" fill="none" stroke="red" stroke-width="2" stroke-linecap="round" stroke-linejoin="round" overflow="visible"/><path style="marker:none" d="M-1043.67 73.01c19.73-32.382 72.208-55.73 73.48-95.541" color="#000" fill="none" stroke="red" stroke-width="3.223" stroke-linecap="round" stroke-linejoin="round" overflow="visible" transform="matrix(.6223 0 0 .61884 871.236 525.18)"/><path style="marker:none" d="M221.51 497.42c13.915 5.806 30.058 10.372 45.97 13.818.512 8.12-4.997 19.839-16.82 29.635-15.712-.906-35.274-5.037-43.205-16.705 5.465-8.916 10.348-17.832 14.056-26.748z" color="#000" fill="#a00" fill-rule="evenodd" stroke="gray" stroke-width="1.5" stroke-linecap="round" stroke-linejoin="round" overflow="visible"/><path d="M250.846 540.686c8.398-.438 41.171-1.606 51.343.386-7.829 7.646-23.209 11.468-21.625 29.15-19.077-5.58-27.042.964-58.812.141 4.157-9.477 21.283-22.974 29.094-29.677z" style="marker:none" color="#000" fill="#a80" fill-rule="evenodd" stroke="gray" stroke-width="1.5" stroke-linecap="round" stroke-linejoin="round" overflow="visible"/><path style="marker:none" d="M207.455 524.168c8.398-.438 33.26 14.524 43.431 16.516-7.829 7.646-21.925 16.361-29.134 29.68-10.837.066-38.558.245-46.2-21.798 17.774-8.551 22.71-12.771 31.903-24.398z" color="#000" fill="#003380" fill-rule="evenodd" stroke="gray" stroke-width="1.5" stroke-linecap="round" stroke-linejoin="round" overflow="visible"/><path style="marker:none" d="M267.48 511.238c8.397-.438 42.572-1.482 52.744.51 3.91 15.43-9.602 22.816-18.227 29.287-14.889-1.03-19.035-1.081-51.367-.164 13.505-10.225 16.32-23.85 16.85-29.633z" color="#000" fill="#217821" fill-rule="evenodd" stroke="gray" stroke-width="1.5" stroke-linecap="round" stroke-linejoin="round" overflow="visible"/></svg>