<svg xmlns="http://www.w3.org/2000/svg" width="744.094" height="1052.362" viewBox="-13.280273 -21.778809 744.09449 1052.3622"><title>Open-Source-Logo</title><path fill="#fff" stroke="#fff" stroke-linecap="square" stroke-linejoin="round" d="M124.147 341.979h432.398v324.847H124.147z"/><path d="M338.795 394.417c-44.678 0-80.898 36.22-80.898 80.899 0 34.679 21.828 64.251 52.49 75.754l18.643-49.714c-10.54-3.953-18.043-14.12-18.043-26.04 0-15.359 12.45-27.81 27.808-27.81 15.359 0 27.81 12.451 27.81 27.81 0 11.92-7.504 22.087-18.044 26.04l18.642 49.714c30.663-11.503 52.49-41.075 52.49-75.754 0-44.68-36.218-80.899-80.898-80.899z" fill="#40aa54" stroke="#20552a" stroke-width="5" stroke-linejoin="round"/><path d="M418.008 531.143v14.958h-3.125v-14.958h-5.127v-2.387H423.1v2.387h-5.09zM442.572 537.54c-.035-.131-.092-.504-.17-1.12-.07-.5-.133-.916-.185-1.25-.079.395-.191.79-.336 1.186a9.594 9.594 0 0 1-.547 1.21l-5.04 9.237-5.04-9.433a12.828 12.828 0 0 1-.949-2.2c-.009.36-.042.74-.099 1.14-.056.399-.142.819-.256 1.256l-2.066 8.535h-2.883l4.553-18.083 5.687 10.957c.088.176.221.464.401.864.18.399.397.898.652 1.495.184-.5.473-1.132.868-1.898l.237-.473 5.555-10.945 4.66 18.083h-2.91l-2.132-8.56z" fill="#20552a"/><path d="M226.72 590.932c0 3.303-2.698 6.067-6.068 6.067-3.438 0-6.068-2.764-6.068-6.067v-8.763c0-3.303 2.697-6.068 6.068-6.068 3.37 0 6.067 2.765 6.067 6.068v8.763zm6.066 0v-8.763c0-6.81-4.786-11.461-12.134-11.461-7.348 0-12.135 4.585-12.135 11.46v8.764c0 6.876 4.787 11.46 12.135 11.46s12.134-4.584 12.134-11.46zM254.358 590.258c0 3.303-2.629 6.068-6.067 6.068-3.37 0-6.067-2.765-6.067-6.068v-7.415c0-3.304 2.696-6.069 6.067-6.069 3.438 0 6.067 2.765 6.067 6.07v7.414zm6.068 0v-7.415c0-6.808-4.854-11.461-11.663-11.461-3.977 0-5.865 2.225-6.74 2.225-.27 0-.473-.27-.473-.742v-.808c0-.471-.202-.675-.674-.675h-4.045c-.472 0-.674.204-.674.675v44.155c0 .472.202.675.674.675h4.719c.472 0 .674-.203.674-.675v-15.977c0-.473.202-.741.539-.741.607 0 2.63 2.224 6.54 2.224 6.27 0 11.123-4.853 11.123-11.46zM280.38 582.843h-10.785c-.607 0-.675-.27-.675-1.012 0-2.965 2.831-5.73 6.068-5.73 3.168 0 6.067 2.698 6.067 5.595 0 .81-.067 1.147-.675 1.147zm6.741 4.043v-4.717c0-6.134-5.393-11.461-12.133-11.461-6.742 0-12.135 5.327-12.135 11.46v8.764c0 6.876 4.787 11.46 12.135 11.46 3.573 0 6.404-.944 8.426-2.83 2.022-1.888 2.832-3.641 2.832-4.113 0-.202-.135-.337-.405-.472l-4.247-2.157c-.134-.067-.27-.135-.404-.135-.405 0-1.012 1.078-2.495 2.832-.742.875-2.09 1.482-3.707 1.482-3.438 0-6.068-2.764-6.068-6.067v-2.696c0-.472.202-.675.675-.675h16.853c.472 0 .673-.203.673-.675zM313.616 601.718h-4.718c-.472 0-.674-.202-.674-.673v-18.202c0-3.304-2.63-6.069-6.068-6.069-3.37 0-6.068 2.765-6.068 6.07v18.2c0 .472-.201.674-.673.674h-4.72c-.472 0-.674-.202-.674-.673v-28.988c0-.471.202-.675.675-.675h4.045c.472 0 .674.204.674.675v.808c0 .472.202.742.472.742.875 0 2.763-2.225 6.74-2.225 6.81 0 11.664 4.653 11.664 11.461v18.202c0 .471-.203.673-.675.673zM331.143 579.27c0 2.764 2.09 4.045 6.742 5.056 7.753 1.685 12.068 2.696 12.068 8.36 0 5.729-4.181 9.706-10.72 9.706h-2.09c-6.27 0-10.382-3.775-10.382-5.865 0-.201.136-.336.473-.472l2.629-1.28c.135-.068.269-.068.337-.068.202 0 .338.134.54.338 1.752 1.954 3.1 3.775 6.403 3.775h2.09c3.776 0 6.203-2.157 6.203-4.922 0-2.494-2.09-3.977-6.608-4.92-7.818-1.62-12.067-2.428-12.067-8.361 0-5.527 4.113-9.37 10.382-9.37h2.09c6.136 0 10.314 3.709 10.314 5.731 0 .202-.202.336-.471.472l-2.563 1.28c-.133.069-.201.069-.27.069-.202 0-.334-.136-.539-.34-1.886-2.02-3.436-3.638-6.47-3.638h-2.091c-3.91 0-6 1.686-6 4.45zM371.728 591.336c0 3.91-3.17 7.214-7.213 7.214-4.045 0-7.147-3.303-7.147-7.214v-9.1c0-3.977 3.034-7.146 7.147-7.146 4.043 0 7.213 3.303 7.213 7.146v9.1zm4.583 0v-9.1c0-6.54-4.65-10.99-11.796-10.99-7.147 0-11.664 4.315-11.664 10.99v9.1c0 6.675 4.517 11.056 11.664 11.056 7.146 0 11.796-4.449 11.796-11.056zM402.604 601.718h-2.494c-.472 0-.675-.202-.675-.673v-2.9c0-.471-.269-.74-.54-.74-.606 0-1.278 1.078-2.492 2.292-1.349 1.28-3.371 2.021-5.596 2.021-6.135 0-10.99-4.516-10.99-11.055v-18.068c0-.471.204-.673.676-.673h3.167c.473 0 .674.202.674.673v18.068c0 3.91 3.17 7.214 7.148 7.214 4.178 0 7.28-3.237 7.28-7.214v-18.068c0-.471.201-.673.673-.673h3.169c.472 0 .674.202.674.673v28.45c0 .471-.202.673-.674.673zM423.703 576.708c-.538 0-1.415-.201-2.561-.201-4.111 0-7.146 3.1-7.146 7.077v17.46c0 .472-.2.674-.673.674h-3.238c-.471 0-.673-.202-.673-.673v-28.45c0-.471.202-.673.673-.673h2.496c.472 0 .674.202.674.673v3.372c0 .471.27.74.54.74.74 0 1.82-1.685 4.246-3.64.742-.606 2.157-1.145 3.101-1.145h2.495c.473 0 .674.202.674.673v3.44c0 .538-.136.673-.608.673zM446.287 596.46c0 2.157-4.112 5.932-10.448 5.932-7.146 0-11.664-4.38-11.664-11.056v-9.1c0-6.675 4.518-10.99 11.664-10.99 6.269 0 10.517 3.575 10.517 5.799 0 .2-.203.405-.472.54L443.052 579c-.135.067-.202.067-.27.067-.202 0-.336-.067-.538-.268-2.023-1.89-3.372-3.71-6.405-3.71-4.113 0-7.146 3.17-7.146 7.147v9.1c0 3.91 3.101 7.215 7.146 7.215 1.618 0 3.236-.674 4.45-1.822 1.414-1.347 2.02-2.29 2.425-2.29.068 0 .203 0 .338.067l2.832 1.415c.337.134.403.27.403.54zM467.59 583.18c0 .471-.201.674-.674.674h-13.01c-.472 0-.673-.203-.673-.675v-.943c0-3.977 3.033-7.146 7.144-7.146 4.046 0 7.213 3.303 7.213 7.146v.943zm4.585 3.168v-4.112c0-5.798-5.259-10.99-11.798-10.99-3.437 0-6.268 1.215-8.494 3.575-2.021 2.157-3.168 4.92-3.168 7.415v9.1c0 6.675 4.518 11.056 11.662 11.056 6.338 0 10.45-3.775 10.45-5.931 0-.27-.067-.406-.404-.54l-2.833-1.415c-.134-.068-.267-.068-.336-.068-.404 0-1.01.944-2.427 2.291-1.212 1.148-2.832 1.821-4.45 1.821-4.044 0-7.144-3.303-7.144-7.214v-3.639c0-.472.2-.675.674-.675H471.5c.472 0 .674-.202.674-.674z"/></svg>